<svg width="80" height="80" viewBox="0 0 80 80" fill="none" xmlns="http://www.w3.org/2000/svg">
<g clip-path="url(#clip0_164_4382)">
<path d="M72 0H8C3.58172 0 0 3.58172 0 8V72C0 76.4183 3.58172 80 8 80H72C76.4183 80 80 76.4183 80 72V8C80 3.58172 76.4183 0 72 0Z" fill="#F4F4F5"/>
<path d="M69.041 8.05078H58.6677C57.0477 8.05078 55.7344 9.36408 55.7344 10.9841V69.0108C55.7344 70.6308 57.0477 71.9441 58.6677 71.9441H69.041C70.6611 71.9441 71.9744 70.6308 71.9744 69.0108V10.9841C71.9744 9.36408 70.6611 8.05078 69.041 8.05078Z" fill="#09090B"/>
</g>
<defs>
<clipPath id="clip0_164_4382">
<rect width="80" height="80" fill="white"/>
</clipPath>
</defs>
</svg>
